<mxfile host="app.diagrams.net" modified="2021-08-23T16:12:26.597Z" agent="5.0 (Windows NT 10.0; Win64; x64) AppleWebKit/537.36 (KHTML, like Gecko) Chrome/92.0.4515.131 Safari/537.36 Edg/92.0.902.73" etag="kgs1sx4RCiLx0_RkQ2qG" version="14.9.8" type="github">
  <diagram id="R-24v6CPf5C5Gnm2EC-X" name="Page-1">
    <mxGraphModel dx="1038" dy="547" grid="0" gridSize="10" guides="1" tooltips="1" connect="1" arrows="1" fold="1" page="1" pageScale="1" pageWidth="827" pageHeight="1169" background="#333333" math="0" shadow="0">
      <root>
        <mxCell id="0" />
        <mxCell id="1" parent="0" />
        <mxCell id="DDlSc0ouqNyKVL6ihZ-G-26" value="" style="rhombus;whiteSpace=wrap;html=1;fillColor=#76608a;strokeColor=#432D57;fontColor=#ffffff;" parent="1" vertex="1">
          <mxGeometry x="179" y="819" width="120" height="80" as="geometry" />
        </mxCell>
        <mxCell id="DDlSc0ouqNyKVL6ihZ-G-11" value="" style="shape=manualInput;whiteSpace=wrap;html=1;fillColor=#76608a;strokeColor=#432D57;fontColor=#ffffff;" parent="1" vertex="1">
          <mxGeometry x="179" y="459" width="120" height="80" as="geometry" />
        </mxCell>
        <mxCell id="DDlSc0ouqNyKVL6ihZ-G-1" value="" style="ellipse;whiteSpace=wrap;html=1;fillColor=#76608a;strokeColor=#432D57;fontColor=#ffffff;" parent="1" vertex="1">
          <mxGeometry x="179" y="99" width="120" height="80" as="geometry" />
        </mxCell>
        <mxCell id="DDlSc0ouqNyKVL6ihZ-G-2" value="Início" style="text;html=1;fillColor=none;align=center;verticalAlign=middle;whiteSpace=wrap;rounded=0;fontColor=#FFFFFF;fontStyle=1" parent="1" vertex="1">
          <mxGeometry x="219" y="129" width="40" height="20" as="geometry" />
        </mxCell>
        <mxCell id="DDlSc0ouqNyKVL6ihZ-G-3" value="" style="shape=manualInput;whiteSpace=wrap;html=1;fillColor=#76608a;strokeColor=#432D57;fontColor=#ffffff;" parent="1" vertex="1">
          <mxGeometry x="179" y="219" width="120" height="80" as="geometry" />
        </mxCell>
        <mxCell id="DDlSc0ouqNyKVL6ihZ-G-4" value="Informar data do evento" style="text;html=1;fillColor=none;align=center;verticalAlign=middle;whiteSpace=wrap;rounded=0;fontColor=#FFFFFF;fontStyle=1" parent="1" vertex="1">
          <mxGeometry x="179" y="239" width="120" height="60" as="geometry" />
        </mxCell>
        <mxCell id="DDlSc0ouqNyKVL6ihZ-G-5" value="" style="rhombus;whiteSpace=wrap;html=1;fillColor=#76608a;strokeColor=#432D57;fontColor=#ffffff;" parent="1" vertex="1">
          <mxGeometry x="179" y="339" width="120" height="80" as="geometry" />
        </mxCell>
        <mxCell id="DDlSc0ouqNyKVL6ihZ-G-6" value="Data do evento &amp;gt; data atual?" style="text;html=1;fillColor=none;align=center;verticalAlign=middle;whiteSpace=wrap;rounded=0;fontColor=#FFFFFF;fontStyle=1" parent="1" vertex="1">
          <mxGeometry x="199" y="349" width="80" height="60" as="geometry" />
        </mxCell>
        <mxCell id="DDlSc0ouqNyKVL6ihZ-G-8" value="Informar título do evento" style="text;html=1;fillColor=none;align=center;verticalAlign=middle;whiteSpace=wrap;rounded=0;fontColor=#FFFFFF;fontStyle=1" parent="1" vertex="1">
          <mxGeometry x="179" y="479" width="120" height="60" as="geometry" />
        </mxCell>
        <mxCell id="DDlSc0ouqNyKVL6ihZ-G-9" value="" style="shape=display;whiteSpace=wrap;html=1;fillColor=#76608a;strokeColor=#432D57;fontColor=#ffffff;" parent="1" vertex="1">
          <mxGeometry x="339" y="339" width="120" height="80" as="geometry" />
        </mxCell>
        <mxCell id="DDlSc0ouqNyKVL6ihZ-G-10" value="Data inválida!" style="text;html=1;fillColor=none;align=center;verticalAlign=middle;whiteSpace=wrap;rounded=0;fontColor=#FFFFFF;fontStyle=1" parent="1" vertex="1">
          <mxGeometry x="359" y="339" width="90" height="80" as="geometry" />
        </mxCell>
        <mxCell id="DDlSc0ouqNyKVL6ihZ-G-12" value="" style="rounded=0;whiteSpace=wrap;html=1;fillColor=#76608a;strokeColor=#432D57;fontColor=#ffffff;" parent="1" vertex="1">
          <mxGeometry x="179" y="579" width="120" height="80" as="geometry" />
        </mxCell>
        <mxCell id="DDlSc0ouqNyKVL6ihZ-G-13" value="Registrar evento" style="text;html=1;fillColor=none;align=center;verticalAlign=middle;whiteSpace=wrap;rounded=0;fontColor=#FFFFFF;fontStyle=1" parent="1" vertex="1">
          <mxGeometry x="179" y="579" width="120" height="80" as="geometry" />
        </mxCell>
        <mxCell id="DDlSc0ouqNyKVL6ihZ-G-14" value="" style="endArrow=classic;html=1;exitX=0.5;exitY=1;exitDx=0;exitDy=0;entryX=0.5;entryY=0;entryDx=0;entryDy=0;fillColor=#76608a;strokeColor=#432D57;" parent="1" source="DDlSc0ouqNyKVL6ihZ-G-1" target="DDlSc0ouqNyKVL6ihZ-G-4" edge="1">
          <mxGeometry width="50" height="50" relative="1" as="geometry">
            <mxPoint x="529" y="309" as="sourcePoint" />
            <mxPoint x="579" y="259" as="targetPoint" />
          </mxGeometry>
        </mxCell>
        <mxCell id="DDlSc0ouqNyKVL6ihZ-G-16" value="" style="endArrow=classic;html=1;exitX=0.5;exitY=1;exitDx=0;exitDy=0;entryX=0.5;entryY=0;entryDx=0;entryDy=0;fillColor=#76608a;strokeColor=#432D57;" parent="1" source="DDlSc0ouqNyKVL6ihZ-G-4" target="DDlSc0ouqNyKVL6ihZ-G-5" edge="1">
          <mxGeometry width="50" height="50" relative="1" as="geometry">
            <mxPoint x="374" y="299" as="sourcePoint" />
            <mxPoint x="424" y="249" as="targetPoint" />
          </mxGeometry>
        </mxCell>
        <mxCell id="DDlSc0ouqNyKVL6ihZ-G-17" value="" style="endArrow=classic;html=1;exitX=0.5;exitY=1;exitDx=0;exitDy=0;entryX=0.5;entryY=0;entryDx=0;entryDy=0;fillColor=#76608a;strokeColor=#432D57;" parent="1" source="DDlSc0ouqNyKVL6ihZ-G-5" target="DDlSc0ouqNyKVL6ihZ-G-8" edge="1">
          <mxGeometry width="50" height="50" relative="1" as="geometry">
            <mxPoint x="419" y="509" as="sourcePoint" />
            <mxPoint x="239" y="469" as="targetPoint" />
          </mxGeometry>
        </mxCell>
        <mxCell id="DDlSc0ouqNyKVL6ihZ-G-18" value="" style="endArrow=classic;html=1;exitX=0.5;exitY=1;exitDx=0;exitDy=0;fillColor=#76608a;strokeColor=#432D57;" parent="1" source="DDlSc0ouqNyKVL6ihZ-G-8" edge="1">
          <mxGeometry width="50" height="50" relative="1" as="geometry">
            <mxPoint x="389" y="599" as="sourcePoint" />
            <mxPoint x="239" y="579" as="targetPoint" />
          </mxGeometry>
        </mxCell>
        <mxCell id="DDlSc0ouqNyKVL6ihZ-G-19" value="não" style="text;html=1;fillColor=none;align=center;verticalAlign=middle;whiteSpace=wrap;rounded=0;fontColor=#FFFFFF;fontStyle=1" parent="1" vertex="1">
          <mxGeometry x="239" y="429" width="40" height="20" as="geometry" />
        </mxCell>
        <mxCell id="DDlSc0ouqNyKVL6ihZ-G-22" value="" style="endArrow=classic;html=1;exitX=1;exitY=0.5;exitDx=0;exitDy=0;fillColor=#76608a;strokeColor=#FFFFFF;strokeWidth=2;" parent="1" source="DDlSc0ouqNyKVL6ihZ-G-5" target="DDlSc0ouqNyKVL6ihZ-G-9" edge="1">
          <mxGeometry width="50" height="50" relative="1" as="geometry">
            <mxPoint x="389" y="509" as="sourcePoint" />
            <mxPoint x="439" y="459" as="targetPoint" />
          </mxGeometry>
        </mxCell>
        <mxCell id="DDlSc0ouqNyKVL6ihZ-G-23" value="sim" style="text;html=1;fillColor=none;align=center;verticalAlign=middle;whiteSpace=wrap;rounded=0;fontColor=#FFFFFF;fontStyle=1" parent="1" vertex="1">
          <mxGeometry x="288" y="359" width="40" height="20" as="geometry" />
        </mxCell>
        <mxCell id="DDlSc0ouqNyKVL6ihZ-G-25" value="Participante &amp;gt; 18 anos?" style="text;html=1;fillColor=none;align=center;verticalAlign=middle;whiteSpace=wrap;rounded=0;fontColor=#FFFFFF;fontStyle=1" parent="1" vertex="1">
          <mxGeometry x="199" y="835" width="80" height="50" as="geometry" />
        </mxCell>
        <mxCell id="DDlSc0ouqNyKVL6ihZ-G-27" value="" style="endArrow=classic;html=1;exitX=0.5;exitY=1;exitDx=0;exitDy=0;fillColor=#76608a;strokeColor=#432D57;" parent="1" source="DDlSc0ouqNyKVL6ihZ-G-13" target="DDlSc0ouqNyKVL6ihZ-G-35" edge="1">
          <mxGeometry width="50" height="50" relative="1" as="geometry">
            <mxPoint x="389" y="699" as="sourcePoint" />
            <mxPoint x="289" y="689" as="targetPoint" />
          </mxGeometry>
        </mxCell>
        <mxCell id="DDlSc0ouqNyKVL6ihZ-G-28" value="" style="shape=display;whiteSpace=wrap;html=1;fillColor=#76608a;strokeColor=#432D57;fontColor=#ffffff;" parent="1" vertex="1">
          <mxGeometry x="339" y="819" width="120" height="80" as="geometry" />
        </mxCell>
        <mxCell id="DDlSc0ouqNyKVL6ihZ-G-29" value="Cadastro não permitido para menores de 18 anos" style="text;html=1;fillColor=none;align=center;verticalAlign=middle;whiteSpace=wrap;rounded=0;fontColor=#FFFFFF;fontStyle=1" parent="1" vertex="1">
          <mxGeometry x="359" y="819" width="90" height="80" as="geometry" />
        </mxCell>
        <mxCell id="DDlSc0ouqNyKVL6ihZ-G-30" value="não" style="text;html=1;fillColor=none;align=center;verticalAlign=middle;whiteSpace=wrap;rounded=0;fontColor=#FFFFFF;fontStyle=1" parent="1" vertex="1">
          <mxGeometry x="289" y="839" width="40" height="20" as="geometry" />
        </mxCell>
        <mxCell id="DDlSc0ouqNyKVL6ihZ-G-31" value="" style="endArrow=classic;html=1;exitX=1;exitY=0.5;exitDx=0;exitDy=0;entryX=0;entryY=0.5;entryDx=0;entryDy=0;entryPerimeter=0;fillColor=#76608a;strokeColor=#FFFFFF;strokeWidth=2;" parent="1" source="DDlSc0ouqNyKVL6ihZ-G-26" target="DDlSc0ouqNyKVL6ihZ-G-28" edge="1">
          <mxGeometry width="50" height="50" relative="1" as="geometry">
            <mxPoint x="329" y="969" as="sourcePoint" />
            <mxPoint x="379" y="919" as="targetPoint" />
          </mxGeometry>
        </mxCell>
        <mxCell id="DDlSc0ouqNyKVL6ihZ-G-32" value="" style="shape=manualInput;whiteSpace=wrap;html=1;fillColor=#76608a;strokeColor=#432D57;fontColor=#ffffff;" parent="1" vertex="1">
          <mxGeometry x="179" y="939" width="120" height="80" as="geometry" />
        </mxCell>
        <mxCell id="DDlSc0ouqNyKVL6ihZ-G-33" value="Informar nome do participante" style="text;html=1;fillColor=none;align=center;verticalAlign=middle;whiteSpace=wrap;rounded=0;fontColor=#FFFFFF;fontStyle=1" parent="1" vertex="1">
          <mxGeometry x="179" y="959" width="120" height="60" as="geometry" />
        </mxCell>
        <mxCell id="DDlSc0ouqNyKVL6ihZ-G-34" value="" style="endArrow=classic;html=1;exitX=0.5;exitY=1;exitDx=0;exitDy=0;entryX=0.5;entryY=0;entryDx=0;entryDy=0;fillColor=#76608a;strokeColor=#FFFFFF;strokeWidth=2;" parent="1" source="DDlSc0ouqNyKVL6ihZ-G-26" target="DDlSc0ouqNyKVL6ihZ-G-33" edge="1">
          <mxGeometry width="50" height="50" relative="1" as="geometry">
            <mxPoint x="349" y="969" as="sourcePoint" />
            <mxPoint x="349" y="929" as="targetPoint" />
          </mxGeometry>
        </mxCell>
        <mxCell id="DDlSc0ouqNyKVL6ihZ-G-35" value="" style="rhombus;whiteSpace=wrap;html=1;fillColor=#76608a;strokeColor=#432D57;fontColor=#ffffff;" parent="1" vertex="1">
          <mxGeometry x="179" y="699" width="120" height="80" as="geometry" />
        </mxCell>
        <mxCell id="DDlSc0ouqNyKVL6ihZ-G-36" value="+100 participantes cadastrados?" style="text;html=1;fillColor=none;align=center;verticalAlign=middle;whiteSpace=wrap;rounded=0;fontColor=#FFFFFF;fontStyle=1" parent="1" vertex="1">
          <mxGeometry x="199" y="707" width="80" height="50" as="geometry" />
        </mxCell>
        <mxCell id="DDlSc0ouqNyKVL6ihZ-G-41" value="" style="shape=display;whiteSpace=wrap;html=1;fillColor=#76608a;strokeColor=#432D57;fontColor=#ffffff;" parent="1" vertex="1">
          <mxGeometry x="339" y="699" width="120" height="80" as="geometry" />
        </mxCell>
        <mxCell id="DDlSc0ouqNyKVL6ihZ-G-42" value="Limite de participantes atingido!" style="text;html=1;fillColor=none;align=center;verticalAlign=middle;whiteSpace=wrap;rounded=0;fontColor=#FFFFFF;fontStyle=1" parent="1" vertex="1">
          <mxGeometry x="359" y="699" width="90" height="80" as="geometry" />
        </mxCell>
        <mxCell id="DDlSc0ouqNyKVL6ihZ-G-43" value="" style="endArrow=classic;html=1;exitX=1;exitY=0.5;exitDx=0;exitDy=0;entryX=0;entryY=0.5;entryDx=0;entryDy=0;entryPerimeter=0;fillColor=#76608a;strokeColor=#FFFFFF;strokeWidth=2;" parent="1" source="DDlSc0ouqNyKVL6ihZ-G-35" target="DDlSc0ouqNyKVL6ihZ-G-41" edge="1">
          <mxGeometry width="50" height="50" relative="1" as="geometry">
            <mxPoint x="529" y="599" as="sourcePoint" />
            <mxPoint x="579" y="549" as="targetPoint" />
          </mxGeometry>
        </mxCell>
        <mxCell id="DDlSc0ouqNyKVL6ihZ-G-44" value="sim" style="text;html=1;fillColor=none;align=center;verticalAlign=middle;whiteSpace=wrap;rounded=0;fontColor=#FFFFFF;fontStyle=1" parent="1" vertex="1">
          <mxGeometry x="289" y="718" width="40" height="20" as="geometry" />
        </mxCell>
        <mxCell id="DDlSc0ouqNyKVL6ihZ-G-45" value="" style="endArrow=classic;html=1;entryX=0.5;entryY=0;entryDx=0;entryDy=0;fillColor=#76608a;strokeColor=#FFFFFF;strokeWidth=2;" parent="1" target="DDlSc0ouqNyKVL6ihZ-G-26" edge="1">
          <mxGeometry width="50" height="50" relative="1" as="geometry">
            <mxPoint x="239" y="779" as="sourcePoint" />
            <mxPoint x="659" y="759" as="targetPoint" />
          </mxGeometry>
        </mxCell>
        <mxCell id="DDlSc0ouqNyKVL6ihZ-G-46" value="não" style="text;html=1;fillColor=none;align=center;verticalAlign=middle;whiteSpace=wrap;rounded=0;fontColor=#FFFFFF;fontStyle=1" parent="1" vertex="1">
          <mxGeometry x="239" y="789" width="40" height="20" as="geometry" />
        </mxCell>
        <mxCell id="DDlSc0ouqNyKVL6ihZ-G-47" value="" style="rounded=0;whiteSpace=wrap;html=1;fillColor=#76608a;strokeColor=#432D57;fontColor=#ffffff;" parent="1" vertex="1">
          <mxGeometry x="339" y="949" width="120" height="80" as="geometry" />
        </mxCell>
        <mxCell id="DDlSc0ouqNyKVL6ihZ-G-48" value="Registrar participante" style="text;html=1;fillColor=none;align=center;verticalAlign=middle;whiteSpace=wrap;rounded=0;fontColor=#FFFFFF;fontStyle=1" parent="1" vertex="1">
          <mxGeometry x="349" y="949" width="100" height="80" as="geometry" />
        </mxCell>
        <mxCell id="DDlSc0ouqNyKVL6ihZ-G-49" value="" style="endArrow=classic;html=1;exitX=1;exitY=0.5;exitDx=0;exitDy=0;entryX=0;entryY=0.5;entryDx=0;entryDy=0;fillColor=#76608a;strokeColor=#432D57;" parent="1" source="DDlSc0ouqNyKVL6ihZ-G-33" target="DDlSc0ouqNyKVL6ihZ-G-47" edge="1">
          <mxGeometry width="50" height="50" relative="1" as="geometry">
            <mxPoint x="479" y="979" as="sourcePoint" />
            <mxPoint x="329" y="989" as="targetPoint" />
          </mxGeometry>
        </mxCell>
        <mxCell id="DDlSc0ouqNyKVL6ihZ-G-50" value="sim" style="text;html=1;fillColor=none;align=center;verticalAlign=middle;whiteSpace=wrap;rounded=0;fontColor=#FFFFFF;fontStyle=1" parent="1" vertex="1">
          <mxGeometry x="239" y="910" width="40" height="20" as="geometry" />
        </mxCell>
        <mxCell id="DDlSc0ouqNyKVL6ihZ-G-51" value="" style="rounded=0;whiteSpace=wrap;html=1;fillColor=#76608a;strokeColor=#432D57;fontColor=#ffffff;" parent="1" vertex="1">
          <mxGeometry x="499" y="949" width="120" height="80" as="geometry" />
        </mxCell>
        <mxCell id="DDlSc0ouqNyKVL6ihZ-G-52" value="Listar eventos e seus participantes" style="text;html=1;fillColor=none;align=center;verticalAlign=middle;whiteSpace=wrap;rounded=0;fontColor=#FFFFFF;fontStyle=1" parent="1" vertex="1">
          <mxGeometry x="509" y="949" width="100" height="80" as="geometry" />
        </mxCell>
        <mxCell id="DDlSc0ouqNyKVL6ihZ-G-53" value="" style="endArrow=classic;html=1;exitX=1;exitY=0.5;exitDx=0;exitDy=0;entryX=0;entryY=0.5;entryDx=0;entryDy=0;fillColor=#76608a;strokeColor=#FFFFFF;strokeWidth=2;" parent="1" source="DDlSc0ouqNyKVL6ihZ-G-47" target="DDlSc0ouqNyKVL6ihZ-G-51" edge="1">
          <mxGeometry width="50" height="50" relative="1" as="geometry">
            <mxPoint x="639" y="869" as="sourcePoint" />
            <mxPoint x="689" y="819" as="targetPoint" />
          </mxGeometry>
        </mxCell>
        <mxCell id="DDlSc0ouqNyKVL6ihZ-G-54" value="" style="rhombus;whiteSpace=wrap;html=1;fillColor=#76608a;strokeColor=#432D57;fontColor=#ffffff;" parent="1" vertex="1">
          <mxGeometry x="659" y="949" width="120" height="80" as="geometry" />
        </mxCell>
        <mxCell id="DDlSc0ouqNyKVL6ihZ-G-55" value="Cadastrar novo evento?" style="text;html=1;fillColor=none;align=center;verticalAlign=middle;whiteSpace=wrap;rounded=0;fontColor=#FFFFFF;fontStyle=1" parent="1" vertex="1">
          <mxGeometry x="699" y="979" width="40" height="20" as="geometry" />
        </mxCell>
        <mxCell id="DDlSc0ouqNyKVL6ihZ-G-56" value="" style="endArrow=classic;html=1;exitX=1;exitY=0.5;exitDx=0;exitDy=0;entryX=0;entryY=0.5;entryDx=0;entryDy=0;fillColor=#76608a;strokeColor=#FFFFFF;strokeWidth=2;" parent="1" source="DDlSc0ouqNyKVL6ihZ-G-51" target="DDlSc0ouqNyKVL6ihZ-G-54" edge="1">
          <mxGeometry width="50" height="50" relative="1" as="geometry">
            <mxPoint x="619" y="1019" as="sourcePoint" />
            <mxPoint x="669" y="969" as="targetPoint" />
          </mxGeometry>
        </mxCell>
        <mxCell id="DDlSc0ouqNyKVL6ihZ-G-62" value="" style="rhombus;whiteSpace=wrap;html=1;fillColor=#76608a;strokeColor=#432D57;fontColor=#ffffff;" parent="1" vertex="1">
          <mxGeometry x="659" y="830" width="120" height="80" as="geometry" />
        </mxCell>
        <mxCell id="DDlSc0ouqNyKVL6ihZ-G-63" value="Cadastrar novo participante?" style="text;html=1;fillColor=none;align=center;verticalAlign=middle;whiteSpace=wrap;rounded=0;fontColor=#FFFFFF;fontStyle=1" parent="1" vertex="1">
          <mxGeometry x="699" y="857" width="40" height="20" as="geometry" />
        </mxCell>
        <mxCell id="DDlSc0ouqNyKVL6ihZ-G-64" value="" style="ellipse;whiteSpace=wrap;html=1;fillColor=#76608a;strokeColor=#432D57;fontColor=#ffffff;" parent="1" vertex="1">
          <mxGeometry x="659" y="709" width="120" height="80" as="geometry" />
        </mxCell>
        <mxCell id="DDlSc0ouqNyKVL6ihZ-G-65" value="Fim" style="text;html=1;fillColor=none;align=center;verticalAlign=middle;whiteSpace=wrap;rounded=0;fontColor=#FFFFFF;fontStyle=1" parent="1" vertex="1">
          <mxGeometry x="699" y="739" width="40" height="20" as="geometry" />
        </mxCell>
        <mxCell id="DDlSc0ouqNyKVL6ihZ-G-68" value="" style="endArrow=classic;html=1;entryX=0.5;entryY=1;entryDx=0;entryDy=0;fillColor=#76608a;strokeColor=#FFFFFF;strokeWidth=2;" parent="1" target="DDlSc0ouqNyKVL6ihZ-G-62" edge="1">
          <mxGeometry width="50" height="50" relative="1" as="geometry">
            <mxPoint x="719" y="949" as="sourcePoint" />
            <mxPoint x="609" y="829" as="targetPoint" />
          </mxGeometry>
        </mxCell>
        <mxCell id="DDlSc0ouqNyKVL6ihZ-G-69" value="" style="endArrow=classic;html=1;exitX=0.5;exitY=1;exitDx=0;exitDy=0;entryX=0;entryY=0.5;entryDx=0;entryDy=0;fillColor=#76608a;strokeColor=#432D57;" parent="1" source="DDlSc0ouqNyKVL6ihZ-G-54" target="DDlSc0ouqNyKVL6ihZ-G-4" edge="1">
          <mxGeometry width="50" height="50" relative="1" as="geometry">
            <mxPoint x="699" y="1109" as="sourcePoint" />
            <mxPoint x="89" y="679" as="targetPoint" />
            <Array as="points">
              <mxPoint x="719" y="1109" />
              <mxPoint x="59" y="1109" />
              <mxPoint x="59" y="269" />
            </Array>
          </mxGeometry>
        </mxCell>
        <mxCell id="DDlSc0ouqNyKVL6ihZ-G-71" value="sim" style="text;html=1;fillColor=none;align=center;verticalAlign=middle;whiteSpace=wrap;rounded=0;fontColor=#FFFFFF;fontStyle=1" parent="1" vertex="1">
          <mxGeometry x="679" y="1049" width="40" height="20" as="geometry" />
        </mxCell>
        <mxCell id="DDlSc0ouqNyKVL6ihZ-G-72" value="não" style="text;html=1;fillColor=none;align=center;verticalAlign=middle;whiteSpace=wrap;rounded=0;fontColor=#FFFFFF;fontStyle=1" parent="1" vertex="1">
          <mxGeometry x="679" y="918" width="40" height="20" as="geometry" />
        </mxCell>
        <mxCell id="DDlSc0ouqNyKVL6ihZ-G-73" value="" style="endArrow=classic;html=1;exitX=0;exitY=0.5;exitDx=0;exitDy=0;entryX=0.5;entryY=0;entryDx=0;entryDy=0;fillColor=#76608a;strokeColor=#432D57;" parent="1" source="DDlSc0ouqNyKVL6ihZ-G-62" target="DDlSc0ouqNyKVL6ihZ-G-35" edge="1">
          <mxGeometry width="50" height="50" relative="1" as="geometry">
            <mxPoint x="569" y="859" as="sourcePoint" />
            <mxPoint x="619" y="809" as="targetPoint" />
            <Array as="points">
              <mxPoint x="579" y="870" />
              <mxPoint x="579" y="669" />
              <mxPoint x="279" y="669" />
            </Array>
          </mxGeometry>
        </mxCell>
        <mxCell id="DDlSc0ouqNyKVL6ihZ-G-74" value="sim" style="text;html=1;fillColor=none;align=center;verticalAlign=middle;whiteSpace=wrap;rounded=0;fontColor=#FFFFFF;fontStyle=1" parent="1" vertex="1">
          <mxGeometry x="599" y="849" width="40" height="20" as="geometry" />
        </mxCell>
        <mxCell id="DDlSc0ouqNyKVL6ihZ-G-75" value="" style="endArrow=classic;html=1;entryX=0.5;entryY=1;entryDx=0;entryDy=0;fillColor=#76608a;strokeColor=#FFFFFF;strokeWidth=2;" parent="1" target="DDlSc0ouqNyKVL6ihZ-G-64" edge="1">
          <mxGeometry width="50" height="50" relative="1" as="geometry">
            <mxPoint x="719" y="829" as="sourcePoint" />
            <mxPoint x="719" y="799" as="targetPoint" />
          </mxGeometry>
        </mxCell>
        <mxCell id="DDlSc0ouqNyKVL6ihZ-G-76" value="não" style="text;html=1;fillColor=none;align=center;verticalAlign=middle;whiteSpace=wrap;rounded=0;fontColor=#FFFFFF;fontStyle=1" parent="1" vertex="1">
          <mxGeometry x="679" y="799" width="40" height="20" as="geometry" />
        </mxCell>
        <mxCell id="DDlSc0ouqNyKVL6ihZ-G-77" value="Savinis - Cadastro de eventos" style="text;html=1;fillColor=none;align=center;verticalAlign=middle;whiteSpace=wrap;rounded=0;fontStyle=1;fontSize=22;fontColor=#FFFFFF;" parent="1" vertex="1">
          <mxGeometry x="40" y="38" width="760" height="20" as="geometry" />
        </mxCell>
        <mxCell id="DDlSc0ouqNyKVL6ihZ-G-80" value="" style="endArrow=classic;html=1;exitX=0.5;exitY=1;exitDx=0;exitDy=0;entryX=0.5;entryY=0;entryDx=0;entryDy=0;fillColor=#76608a;strokeColor=#432D57;" parent="1" edge="1">
          <mxGeometry width="50" height="50" relative="1" as="geometry">
            <mxPoint x="239" y="179" as="sourcePoint" />
            <mxPoint x="239" y="239" as="targetPoint" />
          </mxGeometry>
        </mxCell>
        <mxCell id="DDlSc0ouqNyKVL6ihZ-G-81" value="" style="endArrow=classic;html=1;exitX=0.5;exitY=1;exitDx=0;exitDy=0;entryX=0.5;entryY=0;entryDx=0;entryDy=0;fillColor=#76608a;strokeColor=#432D57;" parent="1" edge="1">
          <mxGeometry width="50" height="50" relative="1" as="geometry">
            <mxPoint x="239" y="299" as="sourcePoint" />
            <mxPoint x="239" y="339" as="targetPoint" />
          </mxGeometry>
        </mxCell>
        <mxCell id="DDlSc0ouqNyKVL6ihZ-G-82" value="" style="endArrow=classic;html=1;exitX=0.5;exitY=1;exitDx=0;exitDy=0;entryX=0;entryY=0.5;entryDx=0;entryDy=0;fillColor=#76608a;strokeColor=#432D57;" parent="1" edge="1">
          <mxGeometry width="50" height="50" relative="1" as="geometry">
            <mxPoint x="719" y="1029" as="sourcePoint" />
            <mxPoint x="179" y="269" as="targetPoint" />
            <Array as="points">
              <mxPoint x="719" y="1109" />
              <mxPoint x="59" y="1109" />
              <mxPoint x="59" y="269" />
            </Array>
          </mxGeometry>
        </mxCell>
        <mxCell id="DDlSc0ouqNyKVL6ihZ-G-83" value="" style="endArrow=classic;html=1;exitX=0.5;exitY=1;exitDx=0;exitDy=0;entryX=0.5;entryY=0;entryDx=0;entryDy=0;fillColor=#76608a;strokeColor=#432D57;" parent="1" edge="1">
          <mxGeometry width="50" height="50" relative="1" as="geometry">
            <mxPoint x="239" y="419" as="sourcePoint" />
            <mxPoint x="239" y="479.0000000000001" as="targetPoint" />
          </mxGeometry>
        </mxCell>
        <mxCell id="DDlSc0ouqNyKVL6ihZ-G-84" value="" style="endArrow=classic;html=1;exitX=0.5;exitY=1;exitDx=0;exitDy=0;fillColor=#76608a;strokeColor=#432D57;" parent="1" edge="1">
          <mxGeometry width="50" height="50" relative="1" as="geometry">
            <mxPoint x="239" y="539.0000000000001" as="sourcePoint" />
            <mxPoint x="239" y="579.0000000000001" as="targetPoint" />
          </mxGeometry>
        </mxCell>
        <mxCell id="DDlSc0ouqNyKVL6ihZ-G-85" value="" style="endArrow=classic;html=1;exitX=0.5;exitY=1;exitDx=0;exitDy=0;fillColor=#76608a;strokeColor=#432D57;" parent="1" edge="1">
          <mxGeometry width="50" height="50" relative="1" as="geometry">
            <mxPoint x="239" y="659" as="sourcePoint" />
            <mxPoint x="239" y="699" as="targetPoint" />
          </mxGeometry>
        </mxCell>
        <mxCell id="DDlSc0ouqNyKVL6ihZ-G-86" value="" style="endArrow=classic;html=1;exitX=0.5;exitY=1;exitDx=0;exitDy=0;entryX=0.5;entryY=0;entryDx=0;entryDy=0;fillColor=#76608a;strokeColor=#FFFFFF;strokeWidth=2;" parent="1" edge="1">
          <mxGeometry width="50" height="50" relative="1" as="geometry">
            <mxPoint x="239" y="179" as="sourcePoint" />
            <mxPoint x="239" y="239" as="targetPoint" />
          </mxGeometry>
        </mxCell>
        <mxCell id="DDlSc0ouqNyKVL6ihZ-G-87" value="" style="endArrow=classic;html=1;exitX=0.5;exitY=1;exitDx=0;exitDy=0;entryX=0.5;entryY=0;entryDx=0;entryDy=0;fillColor=#76608a;strokeColor=#FFFFFF;strokeWidth=2;" parent="1" edge="1">
          <mxGeometry width="50" height="50" relative="1" as="geometry">
            <mxPoint x="239" y="299" as="sourcePoint" />
            <mxPoint x="239" y="339" as="targetPoint" />
          </mxGeometry>
        </mxCell>
        <mxCell id="DDlSc0ouqNyKVL6ihZ-G-88" value="" style="endArrow=classic;html=1;exitX=0.5;exitY=1;exitDx=0;exitDy=0;entryX=0;entryY=0.5;entryDx=0;entryDy=0;fillColor=#76608a;strokeColor=#FFFFFF;strokeWidth=2;" parent="1" edge="1">
          <mxGeometry width="50" height="50" relative="1" as="geometry">
            <mxPoint x="719" y="1029" as="sourcePoint" />
            <mxPoint x="179" y="269" as="targetPoint" />
            <Array as="points">
              <mxPoint x="719" y="1109" />
              <mxPoint x="59" y="1109" />
              <mxPoint x="59" y="269" />
            </Array>
          </mxGeometry>
        </mxCell>
        <mxCell id="DDlSc0ouqNyKVL6ihZ-G-89" value="" style="endArrow=classic;html=1;exitX=0.5;exitY=1;exitDx=0;exitDy=0;entryX=0.5;entryY=0;entryDx=0;entryDy=0;fillColor=#76608a;strokeColor=#FFFFFF;strokeWidth=2;" parent="1" edge="1">
          <mxGeometry width="50" height="50" relative="1" as="geometry">
            <mxPoint x="239" y="419" as="sourcePoint" />
            <mxPoint x="239" y="479.0000000000001" as="targetPoint" />
          </mxGeometry>
        </mxCell>
        <mxCell id="DDlSc0ouqNyKVL6ihZ-G-90" value="" style="endArrow=classic;html=1;exitX=0.5;exitY=1;exitDx=0;exitDy=0;fillColor=#76608a;strokeColor=#FFFFFF;strokeWidth=2;" parent="1" edge="1">
          <mxGeometry width="50" height="50" relative="1" as="geometry">
            <mxPoint x="239" y="539.0000000000001" as="sourcePoint" />
            <mxPoint x="239" y="579.0000000000001" as="targetPoint" />
          </mxGeometry>
        </mxCell>
        <mxCell id="DDlSc0ouqNyKVL6ihZ-G-91" value="" style="endArrow=classic;html=1;exitX=0.5;exitY=1;exitDx=0;exitDy=0;fillColor=#76608a;strokeColor=#FFFFFF;strokeWidth=2;" parent="1" edge="1">
          <mxGeometry width="50" height="50" relative="1" as="geometry">
            <mxPoint x="239" y="659" as="sourcePoint" />
            <mxPoint x="239" y="699" as="targetPoint" />
          </mxGeometry>
        </mxCell>
        <mxCell id="DDlSc0ouqNyKVL6ihZ-G-92" value="" style="endArrow=classic;html=1;exitX=0;exitY=0.5;exitDx=0;exitDy=0;entryX=0.5;entryY=0;entryDx=0;entryDy=0;fillColor=#76608a;strokeColor=#FFFFFF;strokeWidth=2;" parent="1" edge="1">
          <mxGeometry width="50" height="50" relative="1" as="geometry">
            <mxPoint x="659" y="870" as="sourcePoint" />
            <mxPoint x="239" y="699" as="targetPoint" />
            <Array as="points">
              <mxPoint x="579" y="870" />
              <mxPoint x="579" y="669" />
              <mxPoint x="279" y="669" />
            </Array>
          </mxGeometry>
        </mxCell>
        <mxCell id="DDlSc0ouqNyKVL6ihZ-G-93" value="" style="endArrow=classic;html=1;exitX=1;exitY=0.5;exitDx=0;exitDy=0;entryX=0;entryY=0.5;entryDx=0;entryDy=0;fillColor=#76608a;strokeColor=#FFFFFF;strokeWidth=2;" parent="1" edge="1">
          <mxGeometry width="50" height="50" relative="1" as="geometry">
            <mxPoint x="299" y="989" as="sourcePoint" />
            <mxPoint x="339" y="989" as="targetPoint" />
          </mxGeometry>
        </mxCell>
      </root>
    </mxGraphModel>
  </diagram>
</mxfile>
